<svg xmlns="http://www.w3.org/2000/svg" xmlns:xlink="http://www.w3.org/1999/xlink" width="22.47" height="16.78" viewBox="0 0 22.47 16.78">
  <metadata><?xpacket begin="﻿" id="W5M0MpCehiHzreSzNTczkc9d"?>
<x:xmpmeta xmlns:x="adobe:ns:meta/" x:xmptk="Adobe XMP Core 5.6-c138 79.159824, 2016/09/14-01:09:01        ">
   <rdf:RDF xmlns:rdf="http://www.w3.org/1999/02/22-rdf-syntax-ns#">
      <rdf:Description rdf:about=""/>
   </rdf:RDF>
</x:xmpmeta>
                                                                                                    
                                                                                                    
                                                                                                    
                                                                                                    
                                                                                                    
                                                                                                    
                                                                                                    
                                                                                                    
                                                                                                    
                                                                                                    
                                                                                                    
                                                                                                    
                                                                                                    
                                                                                                    
                                                                                                    
                                                                                                    
                                                                                                    
                                                                                                    
                                                                                                    
                                                                                                    
                           
<?xpacket end="w"?></metadata>
<defs>
    <style>
      .cls-1 {
        fill: #fff;
        fill-rule: evenodd;
        filter: url(#filter);
      }
    </style>
    <filter id="filter" x="1192.47" y="6045.34" width="22.47" height="16.78" filterUnits="userSpaceOnUse">
      <feFlood result="flood" flood-color="#31bae2"/>
      <feComposite result="composite" operator="in" in2="SourceGraphic"/>
      <feBlend result="blend" in2="SourceGraphic"/>
    </filter>
  </defs>
  <path class="cls-1" d="M1214.94,6047.32a9.57,9.57,0,0,1-2.64.67,4.287,4.287,0,0,0,2.02-2.34,9.789,9.789,0,0,1-2.93,1.02,4.779,4.779,0,0,0-3.36-1.34,4.434,4.434,0,0,0-4.6,4.25,3.822,3.822,0,0,0,.11.96,13.479,13.479,0,0,1-9.49-4.43,3.965,3.965,0,0,0-.63,2.13,4.177,4.177,0,0,0,2.05,3.53,4.816,4.816,0,0,1-2.08-.53v0.06a4.347,4.347,0,0,0,3.69,4.16,5.274,5.274,0,0,1-1.21.15,4.938,4.938,0,0,1-.87-0.08,4.582,4.582,0,0,0,4.3,2.94,9.723,9.723,0,0,1-5.72,1.82,10,10,0,0,1-1.1-.06,13.914,13.914,0,0,0,7.07,1.91c8.47,0,13.11-6.47,13.11-12.07,0-.19-0.01-0.37-0.02-0.55a8.931,8.931,0,0,0,2.3-2.2" transform="translate(-1192.47 -6045.34)"/>
</svg>
