<svg xmlns="http://www.w3.org/2000/svg" xmlns:xlink="http://www.w3.org/1999/xlink" width="15.9" height="22.44" viewBox="0 0 15.9 22.44">
  <metadata><?xpacket begin="﻿" id="W5M0MpCehiHzreSzNTczkc9d"?>
<x:xmpmeta xmlns:x="adobe:ns:meta/" x:xmptk="Adobe XMP Core 5.6-c138 79.159824, 2016/09/14-01:09:01        ">
   <rdf:RDF xmlns:rdf="http://www.w3.org/1999/02/22-rdf-syntax-ns#">
      <rdf:Description rdf:about=""/>
   </rdf:RDF>
</x:xmpmeta>
                                                                                                    
                                                                                                    
                                                                                                    
                                                                                                    
                                                                                                    
                                                                                                    
                                                                                                    
                                                                                                    
                                                                                                    
                                                                                                    
                                                                                                    
                                                                                                    
                                                                                                    
                                                                                                    
                                                                                                    
                                                                                                    
                                                                                                    
                                                                                                    
                                                                                                    
                                                                                                    
                           
<?xpacket end="w"?></metadata>
<defs>
    <style>
      .cls-1 {
        fill: #fff;
        fill-rule: evenodd;
        filter: url(#filter);
      }
    </style>
    <filter id="filter" x="1387.69" y="6044.34" width="15.9" height="22.44" filterUnits="userSpaceOnUse">
      <feFlood result="flood" flood-color="#ff262d"/>
      <feComposite result="composite" operator="in" in2="SourceGraphic"/>
      <feBlend result="blend" in2="SourceGraphic"/>
    </filter>
  </defs>
  <path class="cls-1" d="M1396.13,6044.36a8.125,8.125,0,0,0-8.43,8.04c0,2.22.77,4.19,2.42,4.92a0.4,0.4,0,0,0,.59-0.32c0.05-.23.18-0.8,0.24-1.03a0.658,0.658,0,0,0-.17-0.72,3.9,3.9,0,0,1-.78-2.53,5.85,5.85,0,0,1,5.81-6.16,4.6,4.6,0,0,1,4.91,4.93c0,3.71-1.51,6.85-3.74,6.85a1.947,1.947,0,0,1-1.86-2.48,30.168,30.168,0,0,0,1.04-4.57,1.678,1.678,0,0,0-1.59-1.94c-1.27,0-2.28,1.43-2.28,3.34a5.255,5.255,0,0,0,.38,2.03s-1.3,5.98-1.52,7.02a15.957,15.957,0,0,0-.04,4.9,0.152,0.152,0,0,0,.28.07,14.055,14.055,0,0,0,2.13-4.21c0.15-.58.83-3.54,0.83-3.54a3.323,3.323,0,0,0,2.89,1.6c3.79,0,6.36-3.77,6.36-8.82A7.341,7.341,0,0,0,1396.13,6044.36Z" transform="translate(-1387.69 -6044.34)"/>
</svg>
