<svg xmlns="http://www.w3.org/2000/svg" xmlns:xlink="http://www.w3.org/1999/xlink" width="22.66" height="22.56" viewBox="0 0 22.66 22.56">
  <metadata><?xpacket begin="﻿" id="W5M0MpCehiHzreSzNTczkc9d"?>
<x:xmpmeta xmlns:x="adobe:ns:meta/" x:xmptk="Adobe XMP Core 5.6-c138 79.159824, 2016/09/14-01:09:01        ">
   <rdf:RDF xmlns:rdf="http://www.w3.org/1999/02/22-rdf-syntax-ns#">
      <rdf:Description rdf:about=""/>
   </rdf:RDF>
</x:xmpmeta>
                                                                                                    
                                                                                                    
                                                                                                    
                                                                                                    
                                                                                                    
                                                                                                    
                                                                                                    
                                                                                                    
                                                                                                    
                                                                                                    
                                                                                                    
                                                                                                    
                                                                                                    
                                                                                                    
                                                                                                    
                                                                                                    
                                                                                                    
                                                                                                    
                                                                                                    
                                                                                                    
                           
<?xpacket end="w"?></metadata>
<defs>
    <style>
      .cls-1 {
        fill: #fff;
        fill-rule: evenodd;
        filter: url(#filter);
      }
    </style>
    <filter id="filter" x="1430.72" y="6043.94" width="22.66" height="22.56" filterUnits="userSpaceOnUse">
      <feFlood result="flood" flood-color="#c88f6f"/>
      <feComposite result="composite" operator="in" in2="SourceGraphic"/>
      <feBlend result="blend" in2="SourceGraphic"/>
    </filter>
  </defs>
  <path class="cls-1" d="M1448.99,6043.95H1435.1a4.374,4.374,0,0,0-4.38,4.36v13.84a4.381,4.381,0,0,0,4.38,4.36h13.89a4.381,4.381,0,0,0,4.38-4.36v-13.84A4.374,4.374,0,0,0,1448.99,6043.95Zm1.54,2.39H1451v3.55l-3.58.01-0.01-3.55Zm-11.64,6.5a3.292,3.292,0,0,1,5.36,0,3.2,3.2,0,0,1,.63,1.92,3.305,3.305,0,0,1-6.61,0A3.261,3.261,0,0,1,1438.89,6052.84Zm12.6,9.4c0,1.15-1.67,2.38-2.84,2.38l-13.88.01a1.948,1.948,0,0,1-2.16-1.88l-0.01-9.4h3.78a6.562,6.562,0,0,0-.86,2.29c0,3.37,3.11,5.75,6.53,5.75a5.5,5.5,0,0,0,5.63-5.81,5.73,5.73,0,0,0-.45-2.23h4.26v8.89Z" transform="translate(-1430.72 -6043.94)"/>
</svg>
